<svg width="24" height="24" viewBox="0 0 24 24" fill="none" xmlns="http://www.w3.org/2000/svg">
<path d="M9.00023 7V2.13C8.51227 2.26498 8.06709 2.52286 7.70723 2.879L4.87923 5.707C4.52381 6.06739 4.26604 6.51238 4.13023 7H9.00023Z" fill="#6B7280"/>
<path d="M18.0662 2H11.0002V7C11.0002 7.53043 10.7895 8.03914 10.4144 8.41421C10.0394 8.78929 9.53067 9 9.00023 9H4.00023V20C3.99221 20.5215 4.19129 21.0248 4.55383 21.3998C4.91637 21.7747 5.41279 21.9905 5.93423 22H18.0662C18.5877 21.9905 19.0841 21.7747 19.4466 21.3998C19.8092 21.0248 20.0083 20.5215 20.0002 20V4C20.0083 3.47853 19.8092 2.97515 19.4466 2.60024C19.0841 2.22532 18.5877 2.00947 18.0662 2ZM15.0662 17H8.82823C8.56302 17 8.30866 16.8946 8.12113 16.7071C7.93359 16.5196 7.82823 16.2652 7.82823 16C7.82823 15.7348 7.93359 15.4804 8.12113 15.2929C8.30866 15.1054 8.56302 15 8.82823 15H15.0662C15.3315 15 15.5858 15.1054 15.7733 15.2929C15.9609 15.4804 16.0662 15.7348 16.0662 16C16.0662 16.2652 15.9609 16.5196 15.7733 16.7071C15.5858 16.8946 15.3315 17 15.0662 17ZM15.0662 13H8.82823C8.56302 13 8.30866 12.8946 8.12113 12.7071C7.93359 12.5196 7.82823 12.2652 7.82823 12C7.82823 11.7348 7.93359 11.4804 8.12113 11.2929C8.30866 11.1054 8.56302 11 8.82823 11H15.0662C15.3315 11 15.5858 11.1054 15.7733 11.2929C15.9609 11.4804 16.0662 11.7348 16.0662 12C16.0662 12.2652 15.9609 12.5196 15.7733 12.7071C15.5858 12.8946 15.3315 13 15.0662 13Z" fill="#6B7280"/>
</svg>
