<svg width="24" height="24" viewBox="0 0 24 24" fill="none" xmlns="http://www.w3.org/2000/svg">
<path d="M9.99 21.2685C9.66134 20.9244 9.43106 20.4914 9.32506 20.018C9.21906 19.5447 9.24155 19.0498 9.39 18.5891C8.97325 18.3732 8.62236 18.0402 8.37681 17.6274C8.13125 17.2146 8.00076 16.7384 8 16.2524V15.2074C8.00001 14.721 8.12995 14.2443 8.37517 13.8309C8.62039 13.4175 8.97116 13.0839 9.388 12.8676C9.36715 12.7776 9.35079 12.6866 9.339 12.5948H7C5.67441 12.5965 4.40356 13.1475 3.46622 14.127C2.52888 15.1066 2.00159 16.4346 2 17.8199V20.955C2 21.2321 2.10536 21.4979 2.29289 21.6939C2.48043 21.8899 2.73478 22 3 22H10.687L9.99 21.2685Z" fill="#6B7280"/>
<path d="M21.5 14.6849H20.38C20.2672 14.1709 20.0714 13.6807 19.801 13.2354L20.601 12.4046C20.6947 12.3066 20.7474 12.1738 20.7474 12.0352C20.7474 11.8967 20.6947 11.7638 20.601 11.6658L19.894 10.927C19.8002 10.829 19.6731 10.774 19.5405 10.774C19.4079 10.774 19.2808 10.829 19.187 10.927L18.392 11.763C17.9647 11.4781 17.4939 11.2717 17 11.1527V9.98226C17 9.84369 16.9473 9.71078 16.8536 9.61279C16.7598 9.5148 16.6326 9.45975 16.5 9.45975H15.5C15.3674 9.45975 15.2402 9.5148 15.1464 9.61279C15.0527 9.71078 15 9.84369 15 9.98226V11.1527C14.5081 11.2706 14.0391 11.4752 13.613 11.7578L12.818 10.927C12.7242 10.829 12.5971 10.774 12.4645 10.774C12.3319 10.774 12.2048 10.829 12.111 10.927L11.404 11.6658C11.3103 11.7638 11.2576 11.8967 11.2576 12.0352C11.2576 12.1738 11.3103 12.3066 11.404 12.4046L12.204 13.2406C11.9324 13.684 11.7349 14.1723 11.62 14.6849H10.5C10.3674 14.6849 10.2402 14.7399 10.1464 14.8379C10.0527 14.9359 10 15.0688 10 15.2074V16.2524C10 16.391 10.0527 16.5239 10.1464 16.6219C10.2402 16.7198 10.3674 16.7749 10.5 16.7749H11.62C11.7328 17.2889 11.9286 17.7791 12.199 18.2243L11.404 19.0551C11.3103 19.1531 11.2576 19.286 11.2576 19.4245C11.2576 19.5631 11.3103 19.696 11.404 19.794L12.111 20.5328C12.2048 20.6307 12.3319 20.6858 12.4645 20.6858C12.5971 20.6858 12.7242 20.6307 12.818 20.5328L13.618 19.6968C14.0422 19.9806 14.5096 20.187 15 20.3071V21.4775C15 21.6161 15.0527 21.749 15.1464 21.847C15.2402 21.945 15.3674 22 15.5 22H16.5C16.6326 22 16.7598 21.945 16.8536 21.847C16.9473 21.749 17 21.6161 17 21.4775V20.3071C17.4919 20.1892 17.9609 19.9845 18.387 19.702L19.182 20.538C19.2758 20.636 19.4029 20.691 19.5355 20.691C19.6681 20.691 19.7952 20.636 19.889 20.538L20.596 19.7992C20.6897 19.7012 20.7424 19.5683 20.7424 19.4298C20.7424 19.2912 20.6897 19.1583 20.596 19.0604L19.796 18.2296C20.0686 17.783 20.2662 17.2911 20.38 16.7749H21.5C21.6326 16.7749 21.7598 16.7198 21.8536 16.6219C21.9473 16.5239 22 16.391 22 16.2524V15.2074C22 15.0688 21.9473 14.9359 21.8536 14.8379C21.7598 14.7399 21.6326 14.6849 21.5 14.6849ZM16 18.3424C15.5055 18.3424 15.0222 18.1892 14.6111 17.9021C14.2 17.6151 13.8795 17.207 13.6903 16.7297C13.5011 16.2523 13.4516 15.727 13.548 15.2202C13.6445 14.7134 13.8826 14.2479 14.2322 13.8825C14.5819 13.5172 15.0273 13.2683 15.5123 13.1675C15.9972 13.0667 16.4999 13.1185 16.9567 13.3162C17.4135 13.5139 17.804 13.8488 18.0787 14.2784C18.3534 14.7081 18.5 15.2132 18.5 15.7299C18.5 16.4228 18.2366 17.0873 17.7678 17.5772C17.2989 18.0672 16.663 18.3424 16 18.3424Z" fill="#6B7280"/>
<path d="M16 16.7749C16.5523 16.7749 17 16.307 17 15.7299C17 15.1527 16.5523 14.6849 16 14.6849C15.4477 14.6849 15 15.1527 15 15.7299C15 16.307 15.4477 16.7749 16 16.7749Z" fill="#6B7280"/>
<path d="M9.32 11.4631C9.42298 10.9802 9.65537 10.538 9.99 10.1881L10.7 9.4493C10.9317 9.20598 11.2072 9.01308 11.5107 8.88178C11.8142 8.75047 12.1395 8.68337 12.468 8.68435C12.525 8.68435 12.581 8.6948 12.637 8.69793C13.0485 7.72066 13.1348 6.62743 12.8819 5.59293C12.629 4.55842 12.0516 3.64235 11.242 2.99108C10.4323 2.33981 9.43714 1.99093 8.41545 2.00018C7.39377 2.00943 6.40453 2.37628 5.6058 3.04212C4.80708 3.70795 4.24496 4.63434 4.00927 5.67327C3.77358 6.7122 3.87792 7.8037 4.30561 8.77338C4.7333 9.74305 5.45966 10.5349 6.36864 11.0225C7.27762 11.5101 8.31675 11.6652 9.32 11.4631Z" fill="#6B7280"/>
</svg>
